<svg width="34" height="34" viewBox="0 0 34 34" fill="none" xmlns="http://www.w3.org/2000/svg">
    <path d="M17.0016 0.333496C26.2066 0.333496 33.6683 7.79516 33.6683 17.0002C33.6683 26.2052 26.2066 33.6668 17.0016 33.6668C7.79663 33.6668 0.334961 26.2052 0.334961 17.0002C0.334961 7.79516 7.79663 0.333496 17.0016 0.333496ZM17.0016 2.8335C13.2444 2.8335 9.64105 4.32605 6.98428 6.98282C4.32752 9.63958 2.83496 13.2429 2.83496 17.0002C2.83496 20.7574 4.32752 24.3607 6.98428 27.0175C9.64105 29.6743 13.2444 31.1668 17.0016 31.1668C20.7589 31.1668 24.3622 29.6743 27.019 27.0175C29.6757 24.3607 31.1683 20.7574 31.1683 17.0002C31.1683 13.2429 29.6757 9.63958 27.019 6.98282C24.3622 4.32605 20.7589 2.8335 17.0016 2.8335ZM16.4133 9.5885L16.535 9.4485C16.7466 9.2368 17.0272 9.10809 17.3257 9.08576C17.6242 9.06343 17.9208 9.14897 18.1616 9.32683L18.3016 9.4485L24.97 16.1152C25.1821 16.3269 25.3111 16.6078 25.3334 16.9067C25.3557 17.2056 25.2699 17.5026 25.0916 17.7435L24.97 17.8852L18.3 24.5518C18.0769 24.7755 17.7775 24.9064 17.4618 24.9183C17.1462 24.9301 16.8378 24.8221 16.5986 24.6158C16.3594 24.4095 16.2071 24.1204 16.1724 23.8064C16.1377 23.4924 16.2232 23.177 16.4116 22.9235L16.5333 22.7835L21.07 18.2485H9.91663C9.61457 18.2485 9.32273 18.1391 9.09508 17.9406C8.86743 17.742 8.71938 17.4678 8.6783 17.1685L8.66663 17.0002C8.6667 16.6979 8.77632 16.4058 8.9752 16.1781C9.17408 15.9504 9.44874 15.8025 9.74829 15.7618L9.91663 15.7502H21.0666L16.5333 11.2168C16.3218 11.005 16.1934 10.7243 16.1714 10.4258C16.1494 10.1273 16.2352 9.83075 16.4133 9.59016L16.535 9.45016L16.4133 9.59016V9.5885Z"
          fill="#005479"/>
</svg>
