<svg width="34" height="34" viewBox="0 0 34 34" fill="none" xmlns="http://www.w3.org/2000/svg">
    <path d="M17.4666 24.5502L17.5883 24.4118C17.7666 24.1709 17.8524 23.8739 17.83 23.5751C17.8077 23.2762 17.6787 22.9952 17.4666 22.7835L12.9333 18.2502H24.0833L24.2533 18.2385C24.5525 18.1974 24.8268 18.0494 25.0253 17.8217C25.2238 17.5941 25.3332 17.3022 25.3333 17.0002L25.3233 16.8318C25.2825 16.532 25.1344 16.2571 24.9063 16.0582C24.6783 15.8593 24.3859 15.7498 24.0833 15.7502H12.9333L17.4699 11.2168L17.5899 11.0768C17.7783 10.8233 17.8638 10.5079 17.8291 10.1939C17.7944 9.87997 17.6422 9.59079 17.403 9.38452C17.1638 9.17824 16.8554 9.07018 16.5397 9.08205C16.2241 9.09392 15.9246 9.22484 15.7016 9.4485L9.03325 16.1152L8.91159 16.2552C8.73327 16.4961 8.64747 16.793 8.6698 17.0919C8.69213 17.3908 8.82112 17.6718 9.03325 17.8835L15.6999 24.5502L15.8416 24.6718C16.0822 24.8499 16.3787 24.9357 16.6772 24.9137C16.9757 24.8917 17.2564 24.7633 17.4683 24.5518L17.4666 24.5502ZM16.9999 0.333496C7.79492 0.333496 0.333252 7.79516 0.333252 17.0002C0.333252 26.2052 7.79492 33.6668 16.9999 33.6668C26.2049 33.6668 33.6666 26.2052 33.6666 17.0002C33.6666 7.79516 26.2049 0.333496 16.9999 0.333496ZM16.9999 31.1668C13.2427 31.1668 9.63934 29.6743 6.98257 27.0175C4.32581 24.3607 2.83325 20.7574 2.83325 17.0002C2.83325 13.2429 4.32581 9.63958 6.98257 6.98282C9.63934 4.32605 13.2427 2.8335 16.9999 2.8335C20.7572 2.8335 24.3605 4.32605 27.0173 6.98282C29.674 9.63958 31.1666 13.2429 31.1666 17.0002C31.1666 20.7574 29.674 24.3607 27.0173 27.0175C24.3605 29.6743 20.7572 31.1668 16.9999 31.1668Z"
          fill="#005479"/>
</svg>
